<?xml version="1.0" encoding="UTF-8"?>
<svg id="Layer_1" data-name="Layer 1" xmlns="http://www.w3.org/2000/svg" viewBox="0 0 379.93 301.73">
  <defs>
    <style>
      .cls-1 {
        fill: #d21c21;
      }

      .cls-2 {
        fill: #fff;
      }

      .cls-3 {
        fill: #49545e;
      }
    </style>
  </defs>
  <rect class="cls-2" width="379.93" height="301.73"/>
  <g>
    <g>
      <path class="cls-1" d="M225.65,175.06l10.31-47.6c4.68-3.12,9-6.79,13.63-9.97.16-.11.65-.55.8-.43l-6.72,30.31c4.46-4.46,8.65-9.21,13.02-13.76h14.83l-17.32,18.76,12.24,22.69h-14.25l-10.16-19.66-4.1,19.66h-12.29Z"/>
      <path class="cls-3" d="M292.32,164.91l-2.28,10.08c-5.63-.14-12.54,1.25-17.29-2.55-3.42-2.74-4.16-6.71-3.86-10.9l6.28-30.34c4.55-2.89,8.71-6.54,13.17-9.52.19-.12.87-.65,1.03-.52l-2.62,12.45h11.63l-2.15,10.95-11.76.04-3.31,16.28c.09,1.6.78,2.98,2.34,3.57.43.16,1.61.45,2.01.45h6.8Z"/>
      <path class="cls-3" d="M192.06,175.06l5.55-26.32c1.91-8.52,8.79-14.8,17.62-15.3,5.12-.29,10.51.23,15.65,0l-2.45,11.04-.11.11c-4.01.24-8.45-.36-12.41.01-3.52.33-5.88,2.85-6.55,6.23l-5.19,24.22h-12.12Z"/>
    </g>
    <g>
      <g>
        <path class="cls-3" d="M122.55,130.02c-2.42,0-4.38,1.96-4.38,4.38v5.53c0,2.42,1.96,4.38,4.38,4.38s4.38-1.96,4.38-4.38v-5.53c0-2.42-1.96-4.38-4.38-4.38Z"/>
        <path class="cls-3" d="M145.9,130.59c-2.42,0-4.38,1.96-4.38,4.38v5.53c0,2.42,1.96,4.38,4.38,4.38s4.38-1.96,4.38-4.38v-5.53c0-2.42-1.96-4.38-4.38-4.38Z"/>
        <path class="cls-1" d="M158.48,167.47c4.29-7.25,5.72-20.3,5.72-20.3,6.84-37.73-27.85-48.18-29.92-48.77v-.03s-.03,0-.05,0c-.03,0-.04,0-.04,0v.03c-2.08.59-36.77,11.04-29.92,48.77,0,0,1.42,13.05,5.71,20.3,0,0-8.86,3.72-8.29,6.76.58,3.05,5.82,11.63,5.82,11.63l8.57-6.87c.26-.2,1.29-.12,1.61-.14,1.51-.12,3.03-.24,4.55-.35,6.74-.49,13.32-.68,20.07-.27,3.36.21,6.72.44,10.08.76l8.57,6.87s5.25-8.58,5.82-11.63c.57-3.04-8.29-6.76-8.29-6.76ZM117.05,165.59c-.99,0-1.79-.79-1.79-1.78s.8-1.79,1.79-1.79,1.79.8,1.79,1.79-.8,1.78-1.79,1.78ZM127.52,165.59c-.99,0-1.79-.79-1.79-1.78s.8-1.79,1.79-1.79,1.79.8,1.79,1.79-.8,1.78-1.79,1.78ZM141.14,165.59c-.99,0-1.79-.79-1.79-1.78s.8-1.79,1.79-1.79,1.79.8,1.79,1.79-.8,1.78-1.79,1.78ZM151.6,165.59c-.99,0-1.79-.79-1.79-1.78s.8-1.79,1.79-1.79,1.79.8,1.79,1.79-.8,1.78-1.79,1.78ZM152.62,150.91c-1.02,2.4-4.32,3.12-6.61,3.5-3.58.6-7.21.45-10.82.4-3.57-.04-7.15.21-10.72-.14-2.77-.27-7.36-.77-8.64-3.76-2.29-5.36-4.86-18.01-1.79-24.01,1.61-3.14,5.29-4.11,8.53-4.49,5.39-.65,10.9-.31,16.32-.3,4.04,0,8.7-.16,12.39,1.76,1.32.68,2.44,1.7,3.12,3.03,3.07,6,.5,18.65-1.79,24.01Z"/>
        <path class="cls-3" d="M144.52,186.83c-1.91-4.33-8.13-3.73-8.13-3.73.03.02.06.04.09.05,2.2,1.25,2.6,4.27.93,6.17l-3.33,3.8-3.34-3.8c-1.66-1.9-1.25-4.92.94-6.17.03-.02.05-.04.08-.05,0,0-6.21-.6-8.12,3.73-.72,1.64-.59,3.54.24,5.13,1.25,2.43,4.14,6.86,10.07,11.29.04.03.08.06.12.1.04-.04.09-.07.12-.1,5.91-4.43,8.81-8.86,10.06-11.29.83-1.59.97-3.5.25-5.13Z"/>
      </g>
      <g>
        <g>
          <path class="cls-1" d="M92.89,157.08l-2.35-2.67,4.95-4.37c1.86-1.65,4.26-2.55,6.74-2.55h4.63v3.56h-4.63c-1.62,0-3.18.59-4.39,1.66l-4.95,4.37Z"/>
          <path class="cls-1" d="M85.97,167.88c-.34,0-.68-.1-.99-.3-2.15-1.44-3.44-3.84-3.44-6.43,0-4.26,3.47-7.73,7.73-7.73s7.73,3.47,7.73,7.73c0,1.7-.54,3.32-1.57,4.67-.59.78-1.71.94-2.49.34-.78-.59-.94-1.71-.34-2.49.55-.73.85-1.6.85-2.52,0-2.3-1.87-4.18-4.18-4.18s-4.18,1.87-4.18,4.18c0,1.4.69,2.7,1.86,3.47.82.55,1.04,1.65.49,2.47-.34.51-.91.79-1.48.79Z"/>
        </g>
        <g>
          <path class="cls-1" d="M175.57,157.08l2.35-2.67-4.95-4.37c-1.86-1.65-4.26-2.55-6.74-2.55h-4.63s0,3.56,0,3.56h4.63c1.62,0,3.18.59,4.39,1.66l4.95,4.37Z"/>
          <path class="cls-1" d="M182.48,167.88c.34,0,.68-.1.99-.3,2.15-1.44,3.44-3.84,3.44-6.43,0-4.26-3.47-7.73-7.73-7.73-4.26,0-7.73,3.47-7.73,7.73,0,1.7.54,3.32,1.57,4.67.59.78,1.71.94,2.49.34.78-.59.94-1.71.34-2.49-.55-.73-.85-1.6-.85-2.52,0-2.3,1.87-4.18,4.18-4.18s4.18,1.87,4.18,4.18c0,1.4-.69,2.7-1.86,3.47-.82.55-1.04,1.65-.49,2.47.34.51.91.79,1.48.79Z"/>
        </g>
      </g>
    </g>
  </g>
</svg>